<svg width="329" height="329" viewBox="0 0 329 329" fill="none" xmlns="http://www.w3.org/2000/svg">
<path d="M183.248 4.08235C190.218 4.08658 191.642 4.16068 197.12 4.83138L197.119 4.83235C199.709 5.14914 200.619 5.26624 202.039 5.51985L203.711 5.8304V5.83138C217.877 8.52442 230.637 14.4108 241.21 23.1771H241.211C243.489 25.0667 247.817 29.4349 249.859 31.8949L250.672 32.887C254.672 37.83 257.678 42.508 260.222 47.763C264.201 55.9838 266.61 63.7574 268.038 72.9583C268.888 78.4322 269.122 81.1704 269.222 86.763V86.764C269.509 102.922 266.213 119.804 259.596 136.325L259.595 136.326C259.135 137.472 258.607 138.757 258.427 139.155L258.425 139.16C258.365 139.292 258.313 139.408 258.281 139.485C258.266 139.532 258.256 139.57 258.248 139.592C258.221 139.668 258.194 139.737 258.177 139.78C258.139 139.873 258.094 139.979 258.05 140.081C257.958 140.292 257.838 140.561 257.709 140.84C257.467 141.364 257.096 142.173 256.886 142.635V142.636C255.475 145.734 252.484 151.837 251.547 153.511L251.545 153.515C251.545 153.516 251.543 153.517 251.542 153.519C251.54 153.523 251.538 153.528 251.534 153.535C251.527 153.547 251.518 153.564 251.506 153.585C251.483 153.627 251.452 153.683 251.415 153.75C251.341 153.886 251.244 154.066 251.128 154.279L250.286 155.828C244.653 166.218 235.937 179.535 227.806 190.191C222.862 196.67 215.983 204.991 210.732 210.846V210.847C208.106 213.774 205.141 217.044 204.226 218.02C201.537 220.886 200.546 221.924 197.151 225.426C191.648 231.104 186.3 236.081 181.127 240.331C179.441 241.717 177.992 242.974 176.895 243.992C176.345 244.501 175.9 244.936 175.564 245.286C175.396 245.461 175.265 245.605 175.167 245.719C175.119 245.775 175.081 245.82 175.055 245.854C175.042 245.87 175.032 245.884 175.025 245.893C175.02 245.901 175.017 245.905 175.017 245.906L175.016 245.905C174.418 246.773 173.672 248.719 172.936 252.511C172.221 256.193 171.578 261.252 170.964 268.021C170.331 274.99 169.777 278.725 168.726 282.741C168.2 284.746 167.202 287.752 166.528 289.313L166.527 289.314C166.284 289.878 165.746 290.998 165.275 291.954C165.033 292.444 164.796 292.918 164.605 293.289C164.51 293.473 164.42 293.646 164.344 293.786C164.326 293.82 164.163 294.127 163.972 294.38L163.973 294.381C164.014 294.327 164.043 294.284 164.054 294.268C164.067 294.248 164.076 294.234 164.079 294.229C164.086 294.219 164.086 294.219 164.076 294.235C164.058 294.264 164.028 294.316 163.986 294.388L163.69 294.919C162.518 297.07 160.479 299.973 158.075 302.991C156.554 304.901 152.648 308.776 150.6 310.421C142.959 316.56 134.546 320.227 125.23 321.426C118.924 322.238 111.973 321.475 106.309 319.315L105.765 319.101C103.237 318.081 101.001 316.891 98.5763 315.288C94.6524 312.694 90.1357 308.296 87.5489 304.528V304.527C87.1423 303.934 86.7665 303.346 86.4952 302.877C86.3689 302.659 86.2206 302.391 86.1056 302.133C86.0669 302.046 85.9338 301.751 85.8585 301.38C85.8351 301.265 85.708 300.674 85.9034 299.959C86.0179 299.541 86.2877 298.923 86.9025 298.42C87.5427 297.896 88.2594 297.739 88.8116 297.739L88.9855 297.743C89.3773 297.766 89.6672 297.861 89.7677 297.894C89.9284 297.947 90.0543 298.003 90.1261 298.037C90.2714 298.106 90.3874 298.175 90.4493 298.212C90.5826 298.293 90.7057 298.378 90.797 298.443C90.9903 298.581 91.2072 298.749 91.4151 298.92C92.8034 300.063 98.1704 303.724 100.307 304.971C104.924 307.665 108.625 309.044 113.691 309.967L114.099 310.039C114.997 310.19 115.642 310.215 118.896 310.215C122.599 310.215 122.944 310.183 124.259 309.956H124.26C128.861 309.163 132.278 308.073 135.661 306.374C144.899 301.735 152.167 293.848 156.097 284.184C157.851 279.869 158.698 275.958 159.439 268.04C160.04 261.607 160.591 256.864 161.106 253.775C162.051 248.096 163.07 243.962 164.374 241.364L164.614 240.911C165.799 238.798 167.859 236.641 170.749 234.149L171.382 233.609C179.099 227.089 181.857 224.574 187.322 219.089C191.949 214.446 195.826 210.36 199.817 205.922C210.292 194.271 217.514 185.292 225.788 173.642C229.622 168.243 236.78 156.811 239.841 151.198V151.197L240.911 149.236L240.912 149.235C241.86 147.5 245.239 140.704 246.275 138.443C252.558 124.737 256.226 111.385 257.464 97.8509C258.255 89.1943 257.901 81.2963 256.306 72.3089C254.388 61.5068 249.93 50.9322 243.856 42.6878C241.645 39.6871 237.422 35.1533 234.341 32.4847C225.425 24.7626 214.938 19.6974 202.762 17.2738C192.901 15.3111 180.452 14.8838 170.703 16.14L169.769 16.2669C154.151 18.4949 140.537 23.6994 127.487 32.429C121.228 36.6169 116.151 40.898 109.814 47.3656H109.813C101.895 55.4454 95.1568 64.0969 88.1495 75.2142C87.3355 76.5061 86.4742 77.8677 86.2374 78.2376V78.2386C84.7957 80.4905 81.9827 85.2176 80.3028 88.2171V88.2181C79.6159 89.4445 79.0607 90.3944 78.6554 91.0169C78.4826 91.2822 78.2227 91.6677 77.9298 91.9788C77.8457 92.0681 77.703 92.2115 77.5108 92.3587C77.3694 92.4671 76.9364 92.789 76.2843 92.932C75.4302 93.1191 74.2267 92.9616 73.3595 91.9749C72.7259 91.2541 72.6362 90.4698 72.6144 90.2474V90.2464C72.5818 89.9136 72.6135 89.6411 72.6183 89.596C72.6291 89.4939 72.6434 89.405 72.6534 89.345C72.6741 89.2221 72.6999 89.0957 72.7237 88.9857C72.7729 88.7588 72.8406 88.4783 72.9171 88.1741C73.0717 87.5596 73.2841 86.766 73.5187 85.9359L73.8692 84.7132C75.6017 78.7491 77.0902 74.925 79.7941 69.4163C85.141 58.5224 92.7299 48.2922 102.997 38.0286L104.295 36.7406C107.21 33.8711 109.395 31.894 112.081 29.6849V29.6839C117.338 25.3605 123.258 21.2955 128.917 18.1292C131.11 16.9021 136.534 14.1736 138.166 13.4876L138.168 13.4866C138.579 13.3143 139.415 12.9554 140.018 12.6927C148.219 9.12028 159.519 6.09281 169.06 4.89388C175.106 4.13399 176.122 4.07758 183.248 4.08235ZM258.347 139.244C258.349 139.235 258.353 139.225 258.356 139.215C258.356 139.212 258.356 139.209 258.357 139.205C258.354 139.219 258.35 139.232 258.347 139.244ZM258.384 139.059C258.387 139.042 258.392 139.024 258.395 139.005C258.396 138.999 258.396 138.992 258.397 138.985C258.393 139.012 258.388 139.037 258.384 139.059Z" fill="#0EA5E9" stroke="#0EA5E9" stroke-width="6"/>
<path d="M104.532 144.703C110.637 140.702 117.154 139.312 123.488 141.115L124.015 141.272C129.418 142.968 133.69 146.782 136.412 152.113V152.114C138.045 155.312 138.783 158.242 138.958 162.029L138.985 162.797V162.798C139.111 167.608 138.444 171.07 136.541 175.273L136.542 175.274C136.255 175.908 136.002 176.452 135.795 176.853C135.696 177.043 135.567 177.284 135.417 177.509C135.345 177.617 135.215 177.803 135.031 177.999C134.936 178.101 134.425 178.662 133.541 178.891C132.999 179.031 132.29 179.05 131.567 178.735C130.877 178.433 130.458 177.95 130.229 177.594C129.834 176.981 129.767 176.386 129.751 176.246C129.704 175.843 129.736 175.466 129.751 175.303C129.789 174.886 129.876 174.341 129.974 173.763C130.357 171.497 130.464 168.018 130.251 165.868L130.204 165.457C129.14 157.323 124.87 152.415 119.977 151.433C115.491 150.532 109.377 153.284 104.981 159.583V159.584C102.84 162.653 100.994 167.163 100.437 170.621C100.319 171.351 100.263 172.511 100.299 173.725C100.335 174.974 100.459 175.954 100.576 176.388L100.66 176.684C101.093 178.129 101.721 179.093 102.616 179.9V179.901C103.396 180.603 104.139 181.11 106.676 182.45L106.677 182.451C107.352 182.808 107.806 183.311 108.063 183.63C108.465 183.756 108.802 183.952 109.064 184.165C109.43 184.463 109.648 184.783 109.767 184.988C109.865 185.158 109.93 185.313 109.976 185.432L111.564 186.271L109.621 189.056C109.552 189.154 109.444 189.298 109.291 189.452C109.15 189.595 108.909 189.807 108.562 189.991C108.218 190.539 107.766 191.219 107.156 192.077L105.721 194.097L103.466 193.069C98.7881 190.934 97.0958 189.964 94.7803 187.728V187.727C91.0569 184.13 89.3929 180.144 89.0342 174.597C88.8213 171.308 89.6193 166.833 90.9609 163.007V163.006C92.409 158.88 94.3843 155.157 96.8779 151.912C97.6824 150.865 99.0045 149.476 100.265 148.258C101.512 147.053 102.924 145.797 103.942 145.099L104.532 144.703Z" fill="#0EA5E9" stroke="#0EA5E9" stroke-width="6"/>
<path d="M108.889 183.681C111.915 185.205 115.189 187.837 116.9 190.315L117.165 190.709C118.379 192.563 119.283 194.641 119.824 196.805L119.935 197.27V197.271C120.147 198.214 120.248 199.818 120.288 201.149C120.323 202.337 120.321 203.712 120.226 204.7L120.179 205.099C119.361 210.894 116.684 216.792 111.667 224.628C107.011 231.9 105.718 234.734 105.267 237.368C105.195 237.791 105.165 238.48 105.213 239.232C105.263 240.014 105.378 240.561 105.449 240.762L105.574 241.073C106.268 242.627 107.973 244.112 110.021 244.628H110.022C111.324 244.955 113.439 244.855 115.477 244.156C118.341 243.175 121.978 240.145 124.872 235.751V235.75C125.572 234.687 126.512 232.919 127.347 231.029C127.35 231.024 127.357 231.009 127.368 230.98C127.384 230.941 127.404 230.888 127.428 230.821C127.479 230.689 127.54 230.52 127.609 230.325C127.747 229.936 127.905 229.47 128.049 229.028C128.275 228.329 128.464 227.75 128.614 227.329C128.688 227.122 128.77 226.899 128.858 226.697C128.882 226.643 129.102 226.088 129.551 225.616C129.695 225.464 130.718 224.393 132.355 224.722C133.942 225.04 134.489 226.363 134.559 226.529C134.803 227.105 134.821 227.678 134.825 227.732C134.848 228.098 134.841 228.589 134.834 229.021C134.653 240.434 127.862 251.31 117.959 254.626H117.958C115.652 255.397 114.357 255.634 111.944 255.723L111.945 255.724C110.585 255.774 109.244 255.751 108.275 255.612H108.274C102.502 254.781 97.2219 250.697 95.0838 245.338L94.8875 244.815C94.1973 242.875 93.9479 241.159 93.9431 238.874L93.9441 238.873C93.9389 236.462 94.2034 234.658 94.907 232.436L95.1385 231.732C96.3312 228.244 98.0884 225.093 101.852 219.323C107.198 211.129 109.091 205.96 109.104 201.431C109.11 199.6 108.818 198.489 108.261 197.545C107.659 196.527 106.575 195.412 104.456 193.894L103.18 192.98L100.786 191.263L102.461 188.838C103.318 187.596 103.753 186.879 103.978 186.471L104.447 185.64C104.607 185.365 104.758 185.115 104.86 184.965C104.894 184.915 104.928 184.865 104.96 184.818C104.993 184.769 105.026 184.722 105.057 184.676L106.536 182.494L108.889 183.681Z" fill="#0EA5E9" stroke="#0EA5E9" stroke-width="6"/>
</svg>
